<svg width="32" height="32" viewBox="0 0 32 32" fill="none" xmlns="http://www.w3.org/2000/svg">
<path d="M16 32C24.8366 32 32 24.8366 32 16C32 7.16344 24.8366 0 16 0C7.16344 0 0 7.16344 0 16C0 24.8366 7.16344 32 16 32Z" fill="black"/>
<path d="M16.0373 2.06543C20.1883 2.06543 23.9151 3.87976 26.4684 6.75826C28.6506 9.21859 29.9764 12.4568 29.9764 16.0045C29.9764 20.1256 28.1883 23.8284 25.3457 26.3802C22.8779 28.5955 19.615 29.9436 16.0373 29.9436C12.4595 29.9436 8.99501 28.5108 6.5017 26.1718C3.79107 23.6291 2.09814 20.0147 2.09814 16.0045C2.09814 12.3856 3.47707 9.08894 5.73805 6.61138C8.28681 3.81831 11.9574 2.06543 16.0373 2.06543Z" stroke="#E8D4A3" stroke-width="1.2" stroke-miterlimit="10"/>
<path d="M16.0372 3.88503C19.585 3.88503 22.776 5.41233 24.9882 7.84418C26.9555 9.9935 28.1568 12.8585 28.1568 16.0038C28.1568 19.5538 26.6295 22.747 24.1969 24.9616C22.0445 26.925 19.181 28.1226 16.0372 28.1226C12.8934 28.1226 10.1416 26.5391 7.97354 24.5007C5.62188 22.2899 3.91846 19.4856 3.91846 16.0038C3.91846 12.866 5.11153 10.0062 7.06825 7.85393C9.28502 5.41533 12.4828 3.88428 16.038 3.88428L16.0372 3.88503Z" stroke="#C1D89F" stroke-miterlimit="10"/>
<path d="M16.0375 5.70532C18.9827 5.70532 21.6319 6.9516 23.5076 8.93155C25.2545 10.7751 26.3367 13.2617 26.3367 16.0045C26.3367 18.9834 25.0709 21.6663 23.0483 23.5451C21.2114 25.2568 18.7466 26.3037 16.0375 26.3037C13.3283 26.3037 11.2892 24.5696 9.44488 22.8309C7.45294 20.9529 5.73828 18.9587 5.73828 16.0045C5.73828 13.3471 6.74474 10.925 8.3972 9.09867C10.282 7.01455 13.0069 5.70532 16.0375 5.70532Z" stroke="#9BDB9C" stroke-width="0.8" stroke-miterlimit="10"/>
<path d="M16.0375 7.5249C18.3801 7.5249 20.4942 8.4834 22.0275 10.0175C23.5593 11.55 24.5171 13.6634 24.5171 16.0045C24.5171 18.3457 23.5121 20.5857 21.8994 22.1272C20.3781 23.5864 18.3127 24.4842 16.0375 24.4842C13.7622 24.4842 12.4358 22.5986 10.9167 21.1605C9.28375 19.6152 7.55859 18.4304 7.55859 16.0045C7.55859 13.8282 8.37846 11.843 9.72665 10.342C11.2787 8.61305 13.5314 7.5249 16.0382 7.5249H16.0375Z" stroke="#74DF98" stroke-width="0.6" stroke-miterlimit="10"/>
<path d="M16.0372 9.34523C17.7766 9.34523 19.3609 10.0122 20.5465 11.1041C21.8684 12.3212 22.6965 14.0658 22.6965 16.0045C22.6965 17.8413 21.9531 19.505 20.7503 20.7094C19.5452 21.9167 17.8785 22.6638 16.0372 22.6638C14.1959 22.6638 13.5821 20.6277 12.3876 19.4893C11.1143 18.276 9.37793 17.902 9.37793 16.0038C9.37793 14.3079 10.0119 12.7603 11.0551 11.5845C12.2752 10.2101 14.055 9.34448 16.0372 9.34448V9.34523Z" stroke="#4DE294" stroke-width="0.4" stroke-miterlimit="10"/>
</svg>
